<svg xmlns="http://www.w3.org/2000/svg" xmlns:xlink="http://www.w3.org/1999/xlink" style="position: absolute; width: 0; height: 0" id="__SVG_SPRITE_NODE__"><symbol xmlns="http://www.w3.org/2000/svg" viewBox="0 0 28 28" id="icon--inline"><path fill-rule="evenodd" d="M7.8 4.2c-1.4-.7-3 .4-2.8 2l.1 1.9-.4-.1c-1.3-.3-2.2 1.3-1.5 2.6l2 3.4-2 3.3c-.7 1.3.2 2.9 1.5 2.6l.4-.1-.1 1.9c-.2 1.6 1.4 2.7 2.8 2l16-7.9c1.5-.7 1.5-3 0-3.7l-16-7.9zm-.6 4.3l11.1 2.4L7.1 6c-.1 0-.2 0-.1.1l.2 2.4zm0 10.9L18.3 17 7.1 21.9c-.1 0-.2 0-.1-.1l.2-2.4zm-2.1-1.6c-.1 0 0 .1.1.1L23.5 14c.1 0 .1-.1 0-.1L5.2 10c-.1 0-.2.1-.1.1l2.2 3.8v.1l-2.2 3.8z"></path></symbol><symbol xmlns="http://www.w3.org/2000/svg" viewBox="0 0 10 10" id="plus-m--inline">
    <path d="M6 4V0H4V4H0V6H4V10H6V6H10V4H6Z"></path>
</symbol><symbol xmlns="http://www.w3.org/2000/svg" viewBox="0 0 8 8" id="plus-s--inline">
    <path fill-rule="evenodd" clip-rule="evenodd" d="M4.75 0.25H3.25V3.25H0.25V4.75H3.25V7.75H4.75V4.75H7.75V3.25H4.75V0.25Z"></path>
</symbol><symbol xmlns="http://www.w3.org/2000/svg" viewBox="0 0 18 18" id="product-basket--inline"><path fill-rule="evenodd" clip-rule="evenodd" d="M9.032 0h-.064c-.439 0-.817 0-1.13.021a3.07 3.07 0 00-.986.207 3 3 0 00-1.624 1.624 3.07 3.07 0 00-.207.986C5 3.15 5 3.529 5 3.968V4c-1.717 0-2.576 0-3.146.518-.56.507-.657 1.375-.826 3.088l-.16 1.607c-.405 4.105-.545 5.228.583 6.473C2.64 17 4.874 17 9 17s6.358 0 7.55-1.314c1.19-1.315.987-2.368.58-6.473l-.158-1.607c-.17-1.713-.254-2.57-.826-3.088C15.576 4 14.716 4 13 4v-.032c0-.439 0-.817-.021-1.13a3.07 3.07 0 00-.207-.986A3 3 0 0011.147.228a3.069 3.069 0 00-.986-.207A17.826 17.826 0 009.032 0zM11 4c0-.48 0-.79-.017-1.026-.015-.228-.042-.315-.06-.357a1 1 0 00-.54-.54c-.042-.018-.129-.045-.357-.06A16.91 16.91 0 009 2c-.48 0-.79 0-1.026.017-.228.015-.315.042-.357.06a1 1 0 00-.541.54c-.017.042-.044.129-.06.357C7 3.21 7 3.52 7 4h4z"></path></symbol><symbol xmlns="http://www.w3.org/2000/svg" viewBox="0 0 28 28" id="forward--inline">
    <path d="M17 11C11.8053 10.5795 3.35178 14.1799 2 22C5 18 11.5 16.5 17 17V24L28 14L17 4V11Z"></path>
</symbol><symbol xmlns="http://www.w3.org/2000/svg" viewBox="0 0 18 18" id="mitten--inline">
    <path d="M16.85 7.49c.64 0 1.17.49 1.17 1.09v.05a17.87 16.6 0 01-.87 4.18 17.84 16.58 0 01-2.88 5l-.17.2H5.22V8.74L10.37 3a5.06 4.7 0 00.82-1.42 5.13 4.77 0 00.25-1.22c.2-.2.5-.31.82-.31.6 0 1.02.37 1.27 1 .3.76.26 1.63.26 1.63a5.12 4.76 0 01-1.1 2.95l-1.7 1.87h5.85zM.01 18.03v-9.3h3.47v9.3H0z"></path>
</symbol><symbol xmlns="http://www.w3.org/2000/svg" viewBox="0 0 14 16" id="like--inline">
    <path fill-rule="evenodd" clip-rule="evenodd" d="M8.09369 6.66667H13.0833C13.6422 6.66667 14 7.01907 14 7.55556C13.9134 8.85181 13.6603 10.1861 13.2484 11.3702L13.2458 11.3783C12.6784 13.0065 11.8368 14.5103 10.7536 15.8309L10.7519 15.833L10.6058 16H3V8L7.37881 2.63253L7.38138 2.62907C7.69226 2.25017 7.9289 1.82681 8.0918 1.35965L8.09369 1.35372C8.21184 1.01402 8.28437 0.655373 8.30923 0.283391C8.4922 0.108351 8.74444 0 9.02326 0C9.54523 0 9.9007 0.332627 10.113 0.898915C10.3663 1.57438 10.3441 2.33958 10.3441 2.33958C10.3441 3.33466 9.98472 4.24774 9.38764 4.97145L9.38953 4.97293L8.09369 6.66667ZM2 16H0V8H2V16Z"></path>
</symbol><symbol xmlns="http://www.w3.org/2000/svg" viewBox="0 0 14 16" id="dislike--inline">
    <path fill-rule="evenodd" clip-rule="evenodd" d="M5.90631 9.33333L0.916654 9.33333C0.357814 9.33333 -1.39651e-05 8.98093 -1.4012e-05 8.44444C0.0865814 7.14819 0.339692 5.81389 0.751577 4.62977L0.75415 4.6217C1.32156 2.99348 2.16317 1.48974 3.24638 0.169112L3.24809 0.166973L3.39419 9.27189e-07L11 2.62268e-07L11 8L6.62119 13.3675L6.61862 13.3709C6.30774 13.7498 6.0711 14.1732 5.9082 14.6403L5.90631 14.6463C5.78816 14.986 5.71563 15.3446 5.69077 15.7166C5.5078 15.8917 5.25556 16 4.97674 16C4.45477 16 4.0993 15.6674 3.88701 15.1011C3.63374 14.4256 3.65586 13.6604 3.65586 13.6604C3.65586 12.6653 4.01528 11.7523 4.61235 11.0286L4.61047 11.0271L5.90631 9.33333ZM12 1.74846e-07L14 0L14 8L12 8L12 1.74846e-07Z"></path>
</symbol><symbol xmlns="http://www.w3.org/2000/svg" viewBox="0 0 24 24" id="rocket--inline">
    <path fill-rule="nonzero" d="M10.245 9.45c3.437-3.465 7.254-3.673 7.62-3.3.36.36.088 4.15-3.36 7.62-.882.885-1.693 1.662-2.505 2.295v2.43c.003 1.002.026 1.035-.6 1.5-.343.252-1.797 1.445-3.36 2.4-.38.234-.696.04-.45-.3.655-.933 1.13-1.762 1.425-2.49.263-.671.262-1.266 0-1.785-1.002.316-1.835.222-2.445-.375-.619-.602-.71-1.44-.375-2.445-.529-.278-1.127-.28-1.8-.015-.73.294-1.56.769-2.49 1.425-.342.245-.537-.07-.3-.45.953-1.563 2.146-3.017 2.4-3.36.463-.625.496-.602 1.5-.6H7.95a28.32 28.32 0 0 1 2.295-2.55zm-5.37 7.965c.21.202-2.58 1.426-2.58 4.29 2.868.002 4.242-2.787 4.455-2.58.206.212-.617 1.832-1.77 2.985C3.838 23.25 2.295 24.001 0 24c.001-2.292.752-3.835 1.905-4.98 1.14-1.148 2.762-1.821 2.97-1.605zM1.05 12c-.006.484-.606.523-.6 0C.523 5.374 4.94 0 12 0c7.055 0 12 4.95 12 12 0 7.052-5.374 11.505-12 11.55-.227.001-.327-.147-.33-.3.001-.146.101-.297.33-.3 5.546.014 10.204-4.948 10.2-10.95.004-6-4.201-10.206-10.2-10.2C5.996 1.794 1.128 5.86 1.05 12z"></path>
</symbol><symbol xmlns="http://www.w3.org/2000/svg" viewBox="0 0 24 24" id="icon_interest--inline">
    <path d="M23 12.21v-.42c-4.4-.172-6.649-.505-8.488-2.302C12.716 7.65 12.382 5.401 12.21 1h-.42c-.172 4.4-.505 6.649-2.302 8.488C7.648 11.285 5.4 11.618 1 11.79v.42c4.4.172 6.649.505 8.488 2.301 1.796 1.84 2.13 4.088 2.302 8.489h.42c.172-4.4.505-6.65 2.302-8.489 1.84-1.796 4.088-2.129 8.488-2.3z"></path>
</symbol><symbol xmlns="http://www.w3.org/2000/svg" viewBox="0 0 24 24" id="icon_subscribed--inline">
    <path fill-rule="evenodd" clip-rule="evenodd" d="M20.837 6.79L9.607 18.684l-5.45-5.905 1.69-1.56 3.78 4.095L19.164 5.21l1.672 1.578z"></path>
</symbol><symbol xmlns="http://www.w3.org/2000/svg" viewBox="0 0 24 24" id="icon_new_subscription--inline">
    <path d="M8 4.657v-.314c-1.138-.103-1.839-.321-2.437-.906C4.978 2.84 4.76 2.138 4.657 1h-.314c-.103 1.138-.321 1.839-.906 2.437-.598.585-1.299.803-2.437.906v.314c1.138.103 1.839.321 2.437.905.585.599.803 1.3.906 2.438h.314c.103-1.138.321-1.84.906-2.438C6.16 4.979 6.862 4.76 8 4.657zM20.836 6.79L9.606 18.684 4.155 12.78l1.69-1.56 3.78 4.095L19.164 5.21l1.672 1.578zM22 18.343v.314c-1.138.103-1.839.321-2.437.905-.585.599-.803 1.3-.906 2.438h-.314c-.103-1.138-.321-1.84-.906-2.438-.598-.584-1.299-.802-2.437-.905v-.314c1.138-.103 1.839-.321 2.437-.906.585-.598.803-1.299.906-2.437h.314c.103 1.138.321 1.839.906 2.437.598.585 1.299.803 2.437.906z"></path>
</symbol><symbol xmlns="http://www.w3.org/2000/svg" viewBox="0 0 20 4" id="card-menu-button-dots--inline">
    <path fill-rule="evenodd" d="M2 4a2 2 0 1 1 0-4 2 2 0 0 1 0 4zm8 0a2 2 0 1 1 0-4 2 2 0 0 1 0 4zm8 0a2 2 0 1 1 0-4 2 2 0 0 1 0 4z"></path>
</symbol><symbol xmlns="http://www.w3.org/2000/svg" viewBox="0 0 18 18" id="zen-star--inline">
    <path d="M17 9.24194V8.75806C14.1121 8.58296 12.478 8.20496 11.1214 6.87857C9.79504 5.52203 9.41704 3.88792 9.24194 1H8.75806C8.58296 3.88792 8.20496 5.52203 6.87857 6.87857C5.52203 8.20496 3.88792 8.58296 1 8.75806V9.24194C3.88792 9.41704 5.52203 9.79504 6.87857 11.1214C8.20496 12.478 8.58296 14.1121 8.75806 17H9.24194C9.41704 14.1121 9.79504 12.478 11.1214 11.1214C12.478 9.79504 14.1121 9.41704 17 9.24194Z"></path>
</symbol><symbol xmlns="http://www.w3.org/2000/svg" viewBox="0 0 34 34" id="zen-star-circle-black--inline"><path fill="#FFE40E" d="M0 0h34v34H0z"></path><path fill="#252630" d="M0 0h34v34H0z"></path><path d="M25 17.242v-.484c-2.888-.175-4.522-.553-5.879-1.88-1.326-1.356-1.704-2.99-1.88-5.878h-.483c-.175 2.888-.553 4.522-1.88 5.879-1.356 1.326-2.99 1.704-5.878 1.88v.483c2.888.175 4.522.553 5.879 1.88 1.326 1.356 1.704 2.99 1.88 5.878h.483c.175-2.888.553-4.522 1.88-5.879 1.356-1.326 2.99-1.704 5.878-1.88z" fill="#fff"></path></symbol><symbol xmlns="http://www.w3.org/2000/svg" viewBox="0 0 18 18" id="facebook--inline"><path fill-rule="evenodd" clip-rule="evenodd" d="M6.44 18V8.996H4V6h2.44V3.89C6.44 1.862 7.607 0 10.74 0c1.268 0 2.21.117 2.21.117v2.759s-1.332-.009-2.21-.009c-.88 0-1.281.564-1.281 1.397V6H13l-.423 2.996H9.458V18H6.441z"></path></symbol><symbol xmlns="http://www.w3.org/2000/svg" viewBox="0 0 18 18" id="instagram--inline">
    <path fill-rule="evenodd" clip-rule="evenodd" d="M9 14C11.7614 14 14 11.7614 14 9C14 6.23858 11.7614 4 9 4C6.23858 4 4 6.23858 4 9C4 11.7614 6.23858 14 9 14ZM9 12C10.6569 12 12 10.6569 12 9C12 7.34315 10.6569 6 9 6C7.34315 6 6 7.34315 6 9C6 10.6569 7.34315 12 9 12Z"></path>
    <path d="M14 5C14.5523 5 15 4.55228 15 4C15 3.44772 14.5523 3 14 3C13.4477 3 13 3.44772 13 4C13 4.55228 13.4477 5 14 5Z"></path>
    <path fill-rule="evenodd" clip-rule="evenodd" d="M5 0C2.23858 0 0 2.23858 0 5V13C0 15.7614 2.23858 18 5 18H13C15.7614 18 18 15.7614 18 13V5C18 2.23858 15.7614 0 13 0H5ZM13 2H5C3.34315 2 2 3.34315 2 5V13C2 14.6569 3.34315 16 5 16H13C14.6569 16 16 14.6569 16 13V5C16 3.34315 14.6569 2 13 2Z"></path>
</symbol><symbol xmlns="http://www.w3.org/2000/svg" viewBox="0 0 18 18" id="livejournal--inline"><path d="M10.408 16.896a8.009 8.009 0 005.825-4.433c1.834-3.861.27-8.497-3.524-10.454a7.998 7.998 0 00-4.676-.834c-.623.082-1.47.296-1.897.479l-.248.106 3.236 3.227 3.235 3.228-.388.19c-1.468.72-2.802 2.06-3.568 3.584a4.879 4.879 0 01-.178.336c-.012.012-1.47-1.421-3.239-3.187L1.77 5.93l-.074.145c-.112.222-.324.893-.44 1.39-.163.707-.19 2.108-.055 2.897A7.989 7.989 0 005.753 16.3c.72.328 1.474.528 2.58.686.304.044 1.663-.015 2.075-.09zm1.441-3.764c-.733-.155-1.348-.296-1.366-.314-.099-.1.519-1.023.983-1.47.52-.5 1.315-.997 1.367-.855.012.035.156.709.318 1.497l.294 1.434-.131-.005c-.073-.003-.732-.132-1.465-.287zM1.981 5.439c.748-1.478 2.053-2.767 3.583-3.538l.31-.155-.876-.873L4.123 0l-.27.135C2.3.912.983 2.211.225 3.717L0 4.164l.866.865c.477.476.87.865.876.865.005 0 .113-.205.239-.455z"></path></symbol><symbol xmlns="http://www.w3.org/2000/svg" viewBox="0 0 18 18" id="medium--inline"><path fill-rule="evenodd" clip-rule="evenodd" d="M5 1h8a4 4 0 014 4v8a4 4 0 01-4 4H5a4 4 0 01-4-4V5a4 4 0 014-4zm.081 5.13a.395.395 0 01.129.334v4.51a.519.519 0 01-.138.447L4 12.721v.171h3.039v-.171l-1.072-1.3a.538.538 0 01-.147-.448v-3.9l2.667 5.82h.31l2.29-5.82v4.638c0 .124 0 .148-.08.23l-.824.8v.17h4v-.17l-.795-.782a.238.238 0 01-.09-.228V5.992a.238.238 0 01.09-.228l.815-.781v-.171h-2.82l-2.01 5.014-2.286-5.014H4.129v.17l.952 1.149z"></path></symbol><symbol xmlns="http://www.w3.org/2000/svg" viewBox="0 0 18 18" id="odnoklassniki--inline"><path fill-rule="evenodd" clip-rule="evenodd" d="M8.977 10c-2.736-.01-4.98-2.274-4.963-5.011A5.011 5.011 0 019.037 0c2.768.007 4.99 2.27 4.976 5.065C14 7.795 11.742 10.009 8.978 10zm2.486-5.004a2.437 2.437 0 00-2.446-2.442 2.44 2.44 0 00-2.452 2.471A2.437 2.437 0 009.03 7.448a2.432 2.432 0 002.433-2.452z"></path><path d="M3.874 12.51c.763.59 1.608.958 2.522 1.189l-1.981 2.048c-.231.239-.397.505-.414.853-.024.515.286 1.027.771 1.27.457.23.926.158 1.32-.244.878-.894 1.75-1.793 2.609-2.706.215-.228.332-.277.575-.015.562.608 1.14 1.2 1.716 1.793.282.29.563.578.843.87.222.23.473.396.795.42.507.035 1.024-.3 1.256-.81.211-.467.13-.964-.253-1.366a626.286 626.286 0 00-2.054-2.132c.342-.078.674-.166.916-.26.827-.317 1.571-.772 2.19-1.401.403-.41.407-.926.08-1.454-.286-.463-.784-.657-1.318-.522a2.05 2.05 0 00-.733.376c-2.238 1.49-5.3 1.448-7.528-.068a2.423 2.423 0 00-.343-.201c-.619-.289-1.213-.154-1.568.349-.414.587-.361 1.157.162 1.655.109.103.228.195.348.287l.09.068z"></path></symbol><symbol xmlns="http://www.w3.org/2000/svg" viewBox="0 0 18 18" id="pinterest--inline"><path d="M9 0a9 9 0 00-3.613 17.243c-.025-.629-.004-1.383.157-2.066l1.158-4.904s-.288-.575-.288-1.425c0-1.333.773-2.329 1.736-2.329.818 0 1.214.615 1.214 1.35 0 .824-.525 2.054-.795 3.194-.225.955.479 1.734 1.42 1.734 1.706 0 2.854-2.19 2.854-4.785 0-1.972-1.328-3.449-3.745-3.449-2.73 0-4.43 2.036-4.43 4.31 0 .784.231 1.337.593 1.765.167.197.19.276.13.501-.044.166-.143.565-.184.723-.06.228-.244.31-.45.226-1.257-.514-1.843-1.89-1.843-3.439 0-2.556 2.156-5.622 6.432-5.622 3.435 0 5.697 2.487 5.697 5.156 0 3.53-1.962 6.168-4.855 6.168-.972 0-1.886-.526-2.2-1.122 0 0-.522 2.074-.632 2.474-.19.694-.565 1.388-.906 1.928A9 9 0 0018 9 9 9 0 009 0z"></path></symbol><symbol xmlns="http://www.w3.org/2000/svg" viewBox="0 0 18 18" id="reddit--inline"><path d="M10.999 11.722c.107.107.107.211 0 .312-.415.415-1.082.622-1.999.622s-1.584-.207-1.999-.623c-.107-.1-.107-.204 0-.31.04-.041.09-.061.15-.061.061 0 .111.02.151.06.322.328.888.492 1.698.492.804 0 1.37-.164 1.697-.492.04-.04.09-.06.151-.06.06 0 .11.02.15.06zM7.915 9.904a.862.862 0 01-.261.633.862.862 0 01-.633.261.879.879 0 01-.638-.261.854.854 0 01-.266-.633c0-.254.089-.469.266-.643A.879.879 0 017.021 9c.248 0 .459.089.633.266.174.178.261.39.261.638zm3.968 0a.853.853 0 01-.266.633.878.878 0 01-.638.261.862.862 0 01-.633-.261.862.862 0 01-.261-.633c0-.248.087-.46.261-.638A.854.854 0 0110.979 9c.248 0 .46.087.638.261a.865.865 0 01.266.643zm2.521-1.205c0-.328-.117-.61-.351-.844a1.163 1.163 0 00-.854-.352c-.335 0-.623.12-.864.362-.87-.603-1.912-.924-3.124-.964l.633-2.843 2.009.452c0 .248.087.459.26.633a.862.862 0 00.634.261.87.87 0 00.637-.266.87.87 0 00.267-.638.87.87 0 00-.267-.638.87.87 0 00-.637-.266c-.362 0-.63.167-.804.502l-2.22-.492c-.127-.033-.21.02-.25.16l-.694 3.135c-1.205.047-2.24.371-3.104.974a1.154 1.154 0 00-.874-.372c-.334 0-.62.118-.853.352a1.15 1.15 0 00-.352.844 1.197 1.197 0 00.683 1.085c-.04.18-.06.368-.06.562 0 .95.468 1.764 1.406 2.44.938.677 2.066 1.015 3.385 1.015 1.326 0 2.458-.338 3.395-1.014.938-.677 1.406-1.49 1.406-2.441a2.13 2.13 0 00-.07-.573 1.19 1.19 0 00.663-1.074zM18 9a8.797 8.797 0 01-.713 3.495 9.04 9.04 0 01-1.919 2.873 9.04 9.04 0 01-2.873 1.919A8.797 8.797 0 019 18a8.797 8.797 0 01-3.496-.713 9.04 9.04 0 01-2.872-1.919 9.042 9.042 0 01-1.919-2.873A8.798 8.798 0 010 9c0-1.219.238-2.384.713-3.496a9.041 9.041 0 011.919-2.872A9.041 9.041 0 015.504.713 8.798 8.798 0 019 0c1.219 0 2.384.238 3.495.713a9.042 9.042 0 012.873 1.919 9.04 9.04 0 011.919 2.872A8.797 8.797 0 0118 9z"></path></symbol><symbol xmlns="http://www.w3.org/2000/svg" viewBox="0 0 18 18" id="telegram--inline"><path d="M17.95 3.295l-2.73 11.837c-.107.421-.294.694-.562.818-.24.1-.549.05-.923-.148l-4.136-2.83L7.59 14.76c-.134.124-.24.211-.321.26a1.068 1.068 0 01-.522.113l.321-3.909 7.67-6.44c.106-.074.133-.136.08-.185-.027-.075-.107-.1-.241-.075a.76.76 0 00-.362.112L4.74 10.18.645 8.99c-.455-.124-.67-.31-.643-.559.027-.248.308-.471.843-.67l15.941-5.695c.402-.124.723-.074.964.15.24.198.308.558.2 1.079z"></path></symbol><symbol xmlns="http://www.w3.org/2000/svg" viewBox="0 0 18 18" id="tumblr--inline"><path d="M14.751 16.11v-2.543c-.823.552-1.624.825-2.402.825-.367 0-.777-.116-1.236-.34-.274-.187-.435-.391-.483-.62-.136-.276-.22-.871-.22-1.79v-4.05h3.693V5.13H10.41V1H8.23c-.184.962-.367 1.647-.552 2.06-.226.504-.593.962-1.096 1.373-.506.414-1.03.71-1.582.892v2.267h1.718v5.564c0 .64.09 1.187.275 1.646.136.367.41.732.825 1.099.32.322.777.596 1.373.825.732.184 1.37.274 1.922.274.64 0 1.236-.069 1.785-.206a7.08 7.08 0 001.853-.684z"></path></symbol><symbol xmlns="http://www.w3.org/2000/svg" viewBox="0 0 18 18" id="twitter--inline"><path fill-rule="evenodd" clip-rule="evenodd" d="M15.997 5.068a3.352 3.352 0 001.533-1.827 7.227 7.227 0 01-2.215.802A3.577 3.577 0 0012.77 3c-1.926 0-3.488 1.478-3.488 3.302 0 .259.03.51.09.752-2.898-.137-5.468-1.452-7.188-3.45a3.153 3.153 0 00-.473 1.66c0 1.146.616 2.157 1.552 2.749a3.624 3.624 0 01-1.58-.413v.041c0 1.6 1.202 2.934 2.798 3.238a3.68 3.68 0 01-1.576.057c.444 1.311 1.732 2.266 3.259 2.293a7.251 7.251 0 01-4.332 1.413c-.282 0-.56-.015-.832-.046C2.544 15.533 4.377 16 6.346 16c6.416 0 9.924-4.952 9.924-9.315a9.04 9.04 0 00-.01-.427A6.888 6.888 0 0018 4.548a7.28 7.28 0 01-2.003.52z"></path></symbol><symbol xmlns="http://www.w3.org/2000/svg" viewBox="0 0 18 18" id="viber--inline"><path fill-rule="evenodd" clip-rule="evenodd" d="M13.863.738c.78.305 1.384.645 1.81 1.02.78.68 1.335 1.722 1.666 3.129.331 1.523.367 3.363.107 5.52-.213 1.71-.863 3.011-1.951 3.902-.591.468-1.36.82-2.306 1.054l-.212.035c-.355.118-.923.223-1.703.317-1.23.164-2.46.2-3.689.105-.496.54-.851.926-1.064 1.16l-.284.317c-.26.281-.449.469-.567.562a.77.77 0 01-.674.106.536.536 0 01-.32-.281 1.851 1.851 0 01-.106-.387v-2.04c-1.3-.35-2.305-1.03-3.015-2.038-.52-.797-.863-1.805-1.028-3.024C.408 9.492.373 8.555.42 7.383.444 6.14.586 5.086.846 4.219c.284-.961.733-1.746 1.348-2.356.544-.492 1.253-.89 2.128-1.195.686-.234 1.466-.41 2.341-.527C7.278.047 7.904 0 8.543 0h.78c1.75.023 3.263.27 4.54.738zm-2.77 6.578c.164 0 .246-.08.246-.242-.047-1.015-.576-1.545-1.588-1.591-.141 0-.223.08-.247.242 0 .138.07.208.212.208.73.046 1.118.438 1.165 1.176 0 .138.07.207.211.207zm.282-1.73c.47.508.694 1.13.67 1.869 0 .161.071.242.212.242.165 0 .247-.07.247-.208.024-.876-.247-1.614-.812-2.214-.54-.6-1.306-.934-2.294-1.003-.141 0-.223.08-.247.242 0 .139.07.208.212.208.87.069 1.541.357 2.012.865zm2.082 2.56c.165 0 .247-.069.247-.207 0-1.476-.459-2.652-1.376-3.529-.87-.853-1.977-1.28-3.318-1.28-.165 0-.247.081-.247.243 0 .138.082.207.247.207 1.2 0 2.188.37 2.965 1.107.847.807 1.27 1.891 1.27 3.252 0 .138.071.208.212.208zm-.918 4.083c.283-.208.542-.508.777-.9.165-.323.118-.6-.141-.83-.424-.392-.965-.761-1.624-1.107a.626.626 0 00-.53-.104.585.585 0 00-.388.208l-.352.415a.478.478 0 01-.318.173l-.177.034a3.713 3.713 0 01-1.447-.726 3.66 3.66 0 01-.918-.969 4.38 4.38 0 01-.458-.865l-.142-.38v-.173a.464.464 0 01.177-.311l.423-.312a.567.567 0 00.212-.38.767.767 0 00-.07-.554c-.189-.323-.365-.6-.53-.83l-.635-.761c-.235-.254-.518-.3-.847-.138-.4.23-.718.484-.953.76-.26.37-.341.716-.247 1.038l.211.45c.165.438.412.946.742 1.522.33.554.682 1.073 1.059 1.557a8.75 8.75 0 001.482 1.453c.541.415 1.2.83 1.977 1.245.706.37 1.259.611 1.659.727.33.115.682.034 1.059-.242z"></path></symbol><symbol xmlns="http://www.w3.org/2000/svg" viewBox="0 0 18 18" id="vimeo--inline"><path d="M1 5.799l.65.852s1.34-1.056 1.787-.528c.447.528 2.152 6.904 2.721 8.081.497 1.032 1.868 2.397 3.37 1.422 1.503-.975 6.498-5.24 7.392-10.275.894-5.035-6.011-3.98-6.742.406 1.828-1.097 2.804.446 1.868 2.194-.934 1.745-1.787 2.884-2.233 2.884-.446 0-.79-1.168-1.3-3.21-.529-2.111-.525-5.913-2.72-5.482C3.72 2.549 1 5.799 1 5.799z"></path></symbol><symbol xmlns="http://www.w3.org/2000/svg" viewBox="0 0 18 18" id="vkontakte--inline"><path fill-rule="evenodd" clip-rule="evenodd" d="M15.923 11.062c1.126 1.224 1.869 2.22 1.916 2.301.597 1.014-.66 1.09-.66 1.09l-2.402.037s-.518.105-1.198-.375c-.9-.627-1.746-2.267-2.41-2.057-.668.219-.648 1.697-.648 1.697s.004.259-.147.428c-.165.178-.49.162-.49.162H8.806s-2.375.202-4.466-2.024C2.06 9.893.05 5.106.05 5.106s-.115-.303.008-.457c.142-.17.53-.177.53-.177l2.572-.013s.24.045.415.174c.142.105.225.307.225.307s.415 1.079.964 2.048c1.075 1.9 1.577 2.315 1.94 2.113.534-.299.372-2.682.372-2.682s.012-.869-.269-1.257c-.213-.295-.616-.383-.798-.408-.146-.02.095-.363.403-.517.462-.23 1.28-.246 2.244-.234.751.008.969.056 1.261.13.89.217.589 1.062.589 3.09 0 .65-.115 1.563.344 1.866.197.13.68.02 1.88-2.072.574-.994 1-2.158 1-2.158s.095-.21.242-.299c.15-.088.351-.06.351-.06l2.707-.02s.81-.097.945.278c.138.392-.305 1.313-1.411 2.82-1.818 2.472-1.766 2.26-.64 3.484z"></path></symbol><symbol xmlns="http://www.w3.org/2000/svg" viewBox="0 0 18 18" id="whatsapp--inline"><path fill-rule="evenodd" clip-rule="evenodd" d="M12.688.645a8.78 8.78 0 012.77 1.822c.81.809 1.429 1.732 1.859 2.77A7.682 7.682 0 0118 8.424a7.96 7.96 0 01-1.176 4.212 8.437 8.437 0 01-3.112 3.074A8.16 8.16 0 019.5 16.848a8.201 8.201 0 01-4.022-1.024L1 17l1.214-4.364a8.16 8.16 0 01-1.138-4.212 8.16 8.16 0 011.138-4.212 8.524 8.524 0 013.074-3.074A8.16 8.16 0 019.5 0c1.113 0 2.176.215 3.188.645zm-.566 8.892c.222.081.747.325 1.576.732l.124.082c.194.08.305.149.332.203.028.054.028.19 0 .407 0 .216-.055.447-.166.69-.083.218-.304.448-.663.692-.332.217-.622.34-.87.366-.388.055-.761.055-1.12 0-.415-.081-.968-.27-1.659-.569-1.41-.597-2.695-1.708-3.856-3.335l-.083-.081c-.608-.84-.912-1.614-.912-2.318 0-.705.249-1.315.746-1.83l.042-.041c.193-.19.4-.285.622-.285h.497c.11 0 .194.027.249.081.083.027.152.122.207.285l.705 1.668c.083.162.097.298.042.406a2.803 2.803 0 01-.54.732.801.801 0 00-.207.285c-.027.054 0 .122.083.203.387.705.843 1.261 1.369 1.668.387.298.967.637 1.741 1.017.221.108.387.094.498-.041.359-.407.608-.705.746-.895.055-.108.124-.163.207-.163.083 0 .18.014.29.041z"></path></symbol><symbol xmlns="http://www.w3.org/2000/svg" viewBox="0 0 18 18" id="youtube--inline"><path fill-rule="evenodd" clip-rule="evenodd" d="M17.105 3.507c.54.583.715 1.907.715 1.907S18 6.968 18 8.522v1.456c0 1.554-.18 3.108-.18 3.108s-.176 1.323-.715 1.905c-.618.689-1.302.76-1.688.8l-.116.014c-2.519.193-6.301.2-6.301.2s-4.68-.046-6.12-.194a3.816 3.816 0 00-.244-.036c-.456-.059-1.172-.15-1.74-.785-.54-.582-.716-1.905-.716-1.905S0 11.532 0 9.977V8.521c0-1.553.18-3.107.18-3.107S.356 4.09.895 3.507c.62-.691 1.418-.773 1.804-.812.04-.004-.034.004 0 0C5.217 2.5 8.995 2.5 8.995 2.5h.009s3.778 0 6.297.195l.112.012c.386.04 1.072.109 1.692.8zm-4.726 5.745l-5.627 3.376V5.876l5.627 3.376z"></path></symbol><symbol xmlns="http://www.w3.org/2000/svg" viewBox="0 0 20 20" id="copy--inline"><path d="M8.536 1.464a5 5 0 1 0-7.072 7.072L2.88 9.95a5.001 5.001 0 0 0 5.362 1.12l-1.66-1.66a2.993 2.993 0 0 1-2.288-.874L2.879 7.12A3 3 0 0 1 7.12 2.88l1.415 1.414c.628.628.92 1.466.874 2.288l1.66 1.66A5.001 5.001 0 0 0 9.95 2.88L8.536 1.464zM11.464 18.535a5 5 0 1 0 7.071-7.07l-1.414-1.415a5.001 5.001 0 0 0-5.362-1.12l1.66 1.66a2.993 2.993 0 0 1 2.288.874l1.414 1.415a3 3 0 1 1-4.242 4.242l-1.415-1.414a2.992 2.992 0 0 1-.874-2.288l-1.66-1.66a5.001 5.001 0 0 0 1.12 5.362l1.414 1.415z"></path><path d="M14.707 13.293l-8-8-1.414 1.414 8 8 1.414-1.414z"></path></symbol><symbol xmlns="http://www.w3.org/2000/svg" viewBox="0 0 18 18" id="check-icon--inline">
    <path d="M18 3L6 16L0 9L1 8L6 11.5L17 2L18 3Z"></path>
</symbol><symbol xmlns="http://www.w3.org/2000/svg" fill="none" viewBox="0 0 18 18" id="block-s--inline"><path fill-rule="evenodd" clip-rule="evenodd" d="M0 9a9 9 0 1 1 18 0A9 9 0 0 1 0 9zm16 0A7 7 0 1 0 2 9a7 7 0 0 0 14 0z" fill="#000"></path><path d="M4 4l10 10" stroke="#000" stroke-width="2"></path></symbol><symbol xmlns="http://www.w3.org/2000/svg" fill="none" viewBox="0 0 18 18" id="unblock-s--inline"><path fill-rule="evenodd" clip-rule="evenodd" d="M0 9a9 9 0 1 1 18 0A9 9 0 0 1 0 9zm16.2 0A7.2 7.2 0 1 0 1.8 9a7.2 7.2 0 0 0 14.4 0z" fill="currentColor"></path><path d="M5 8l4 4 6.5-6.5" stroke="currentColor" stroke-width="2"></path></symbol><symbol xmlns="http://www.w3.org/2000/svg" fill="none" viewBox="0 0 18 18" id="report-s--inline"><circle cx="9" cy="12.5" r="1.5" fill="#000"></circle><path d="M7.5 4h3l-1 6h-1l-1-6z" fill="#000"></path><circle cx="9" cy="9" r="8" stroke="#000" stroke-width="2"></circle></symbol><symbol xmlns="http://www.w3.org/2000/svg" fill="none" viewBox="0 0 18 18" id="share-s--inline">
    <path d="M4.5 6.5L8 4.16667V13H10V4.16667L13.5 6.5L14.5 5.5L9 0L3.5 5.5L4.5 6.5Z" fill="currentColor"></path>
    <path d="M0 10H4V11.5L2.00004 11.75L2.00003 16H16L16 11.75L14 11.5V10H18L18 16C18 17.1046 17.1046 18 16 18H2.00003C0.895466 18 3.49925e-05 17.1046 3.49594e-05 16L0 10Z" fill="currentColor"></path>
</symbol><symbol xmlns="http://www.w3.org/2000/svg" viewBox="0 0 28 28" id="subscribe-m--inline">
    <path d="M23 3H25V6H28V8H25V11H23V8H20V6H23V3Z"></path>
    <path fill-rule="evenodd" clip-rule="evenodd" d="M13 5C10.2386 5 8 7.35051 8 10.25C8 14 10.2386 17 13 17C15.7614 17 18 14 18 10.25C18 7.35051 15.7614 5 13 5ZM11.0703 13.8391C11.6923 14.6768 12.3955 15 13 15C13.6045 15 14.3077 14.6768 14.9297 13.8391C15.5523 13.0004 16 11.7418 16 10.25C16 8.362 14.566 7 13 7C11.434 7 10 8.362 10 10.25C10 11.7418 10.4477 13.0004 11.0703 13.8391Z"></path>
    <path d="M18.31 23C18.0955 22.6544 17.843 22.3826 17.5704 22.1637C16.6842 21.4522 15.2165 21 13 21C10.7836 21 9.31581 21.4522 8.42964 22.1637C8.15701 22.3826 7.90453 22.6544 7.69 23H5.47778C6.52975 20.1552 9.25387 19 13 19C16.7462 19 19.4703 20.1552 20.5222 23H18.31Z"></path>
</symbol><symbol xmlns="http://www.w3.org/2000/svg" viewBox="0 0 28 28" id="subscribed-m--inline">
    <path d="M20.2072 4.66056L18.7923 6.07402L22.7364 10.0224L28.0423 4.62835L26.6165 3.22583L22.7255 7.18148L20.2072 4.66056Z"></path>
    <path fill-rule="evenodd" clip-rule="evenodd" d="M12.9998 5.00005C10.2383 5.00005 7.99976 7.35055 7.99976 10.25C7.99976 14 10.2383 17 12.9998 17C15.7612 17 17.9998 14 17.9998 10.25C17.9998 7.35055 15.7612 5.00005 12.9998 5.00005ZM11.07 13.8391C11.692 14.6769 12.3953 15 12.9998 15C13.6042 15 14.3075 14.6769 14.9295 13.8391C15.5521 13.0005 15.9998 11.7418 15.9998 10.25C15.9998 8.36204 14.5658 7.00005 12.9998 7.00005C11.4337 7.00005 9.99976 8.36204 9.99976 10.25C9.99976 11.7418 10.4474 13.0005 11.07 13.8391Z"></path>
    <path d="M18.3098 23C18.0953 22.6544 17.8428 22.3826 17.5701 22.1637C16.684 21.4522 15.2162 21 12.9998 21C10.7833 21 9.31556 21.4522 8.4294 22.1637C8.15677 22.3826 7.90428 22.6544 7.68975 23H5.47754C6.5295 20.1553 9.25363 19 12.9998 19C16.7459 19 19.47 20.1553 20.522 23H18.3098Z"></path>
</symbol><symbol xmlns="http://www.w3.org/2000/svg" viewBox="0 0 28 28" id="unsubscribe-m--inline">
    <path d="M26.293 10.7072L24.0001 8.41429L21.7072 10.7072L20.293 9.29297L22.5859 7.00008L20.293 4.70718L21.7072 3.29297L24.0001 5.58586L26.293 3.29297L27.7072 4.70718L25.4143 7.00008L27.7072 9.29297L26.293 10.7072Z"></path>
    <path fill-rule="evenodd" clip-rule="evenodd" d="M7.99976 10.2501C7.99976 7.35063 10.2383 5.00012 12.9998 5.00012C15.7612 5.00012 17.9998 7.35063 17.9998 10.2501C17.9998 14.0001 15.7612 17.0001 12.9998 17.0001C10.2383 17.0001 7.99976 14.0001 7.99976 10.2501ZM12.9998 15.0001C12.3953 15.0001 11.692 14.677 11.07 13.8392C10.4474 13.0005 9.99976 11.7419 9.99976 10.2501C9.99976 8.36212 11.4337 7.00012 12.9998 7.00012C14.5658 7.00012 15.9998 8.36212 15.9998 10.2501C15.9998 11.7419 15.5521 13.0005 14.9295 13.8392C14.3075 14.677 13.6042 15.0001 12.9998 15.0001Z"></path>
    <path d="M17.5701 22.1638C17.8428 22.3827 18.0953 22.6545 18.3098 23.0001H20.522C19.47 20.1554 16.7459 19.0001 12.9998 19.0001C9.25363 19.0001 6.5295 20.1554 5.47754 23.0001H7.68975C7.90428 22.6545 8.15677 22.3827 8.4294 22.1638C9.31556 21.4523 10.7833 21.0001 12.9998 21.0001C15.2162 21.0001 16.684 21.4523 17.5701 22.1638Z"></path>
</symbol><symbol xmlns="http://www.w3.org/2000/svg" viewBox="0 0 28 28" id="back-arrow--inline">
<path d="M2 14L10 6L11 7L7.14 13H24V15H7.14L11 21L10 22L2 14Z"></path>
</symbol><symbol xmlns="http://www.w3.org/2000/svg" viewBox="0 0 8 14" fill="none" id="arrow--inline">
<path fill-rule="evenodd" clip-rule="evenodd" d="M1.5 13.5L0.5 12.5L5 6.99999L0.5 1.5L1.5 0.5L8 6.99999L1.5 13.5Z" fill="black"></path>
</symbol><symbol xmlns="http://www.w3.org/2000/svg" fill="currentColor" viewBox="0 0 28 28" id="share--inline"><path d="M8 9l5-3.3V19h2V5.7L20 9l1-1-7-7-7 7 1 1z"></path><path d="M3 13h5v1.5l-3 .3V22c0 .6.4 1 1 1h16c.6 0 1-.4 1-1v-7.2l-3-.3V13h5v9a3 3 0 01-3 3H6a3 3 0 01-3-3v-9z"></path></symbol><symbol xmlns="http://www.w3.org/2000/svg" viewBox="0 0 28 28" id="dots-m--inline">
    <path d="M7 16C8.10457 16 9 15.1046 9 14C9 12.8954 8.10457 12 7 12C5.89543 12 5 12.8954 5 14C5 15.1046 5.89543 16 7 16ZM14 16C15.1046 16 16 15.1046 16 14C16 12.8954 15.1046 12 14 12C12.8954 12 12 12.8954 12 14C12 15.1046 12.8954 16 14 16ZM23 14C23 15.1046 22.1046 16 21 16C19.8954 16 19 15.1046 19 14C19 12.8954 19.8954 12 21 12C22.1046 12 23 12.8954 23 14Z"></path>
</symbol><symbol xmlns="http://www.w3.org/2000/svg" viewBox="0 0 18 18" fill="none" id="icon-arrow-s--inline">
    <path d="M3 6L9 12L15 6" stroke-width="2"></path>
</symbol><symbol xmlns="http://www.w3.org/2000/svg" viewBox="0 0 20 19" id="favorite--inline"><path fill-rule="evenodd" clip-rule="evenodd" d="M10.509 18.86C16.78 15.154 20 11.22 20 7c0-6.002-6.749-7.89-10-3.898C6.749-.889 0 .998 0 7c0 4.22 3.219 8.153 9.491 11.86a1 1 0 001.018 0zm.402-13.448C12.677 1.51 18 2.542 18 7c0 3.253-2.617 6.55-8 9.834C4.617 13.549 2 10.254 2 7c0-4.459 5.323-5.49 7.089-1.588.355.784 1.467.784 1.822 0z" fill="curentColor"></path></symbol><symbol xmlns="http://www.w3.org/2000/svg" fill="none" viewBox="0 0 22 21" id="favorited--inline"><path d="M11.39 19.87a.696.696 0 01-.78 0C8.764 18.637 1 13.15 1 7.973c0-6.68 7.85-7.75 10-3.25 2.15-4.5 10-3.43 10 3.25 0 5.178-7.764 10.664-9.61 11.895z" fill="#EA3B46" stroke="currentColor" stroke-opacity=".5" stroke-width="2"></path></symbol><symbol xmlns="http://www.w3.org/2000/svg" viewBox="0 0 14 14" id="cross--inline"><path d="m13.0208153 11.0208153v-7.50000002h-2v7.50000002h-7.50000002v2h7.50000002v7.5h2v-7.5h7.5v-2z" fill-rule="evenodd" transform="matrix(.70710678 -.70710678 .70710678 .70710678 -9.979185 7.020815)"></path></symbol><symbol xmlns="http://www.w3.org/2000/svg" fill="none" viewBox="0 0 18 18" id="narrow-forward-arrow--inline"><path fill-rule="evenodd" clip-rule="evenodd" d="M7.5 15.5l-1-1L11 9 6.5 3.5l1-1L14 9l-6.5 6.5z" fill="currentColor"></path></symbol><symbol xmlns="http://www.w3.org/2000/svg" fill="white" viewBox="0 0 18 18" id="eye-light-s--inline">
    <path d="M9.99986 9.73224C9.381 10.0894 8.6186 10.0892 7.99986 9.73191C7.38112 9.37457 7.00003 8.7143 7.00015 7.99983C7.00015 6.89536 7.89558 6 9.00015 6C10.1047 6 11.0001 6.89536 11.0001 7.99983C11 8.71497 10.6187 9.37511 9.99986 9.73224Z"></path>
    <path fill-rule="evenodd" clip-rule="evenodd" d="M8.99999 2C4.89696 2 1.4352 4.74564 0.351807 8.49984C1.4351 12.2542 4.89693 15 9.00009 15C13.1031 15 16.5649 12.2544 17.6483 8.50017C16.565 4.7458 13.1031 2 8.99999 2ZM9.00009 13C11.7615 13 14.0001 10.7614 14.0001 8C14.0001 5.23858 11.7615 3 9.00009 3C6.23866 3 4.00009 5.23858 4.00009 8C4.00009 10.7614 6.23866 13 9.00009 13Z"></path>
</symbol><symbol xmlns="http://www.w3.org/2000/svg" viewBox="0 0 24 24" id="mute-button--inline"><path d="M16.2 7.8L14.8 9.2C16.3 10.8 16.3 13.3 14.8 14.8L16.2 16.3C18.5 13.9 18.5 10.1 16.2 7.8Z"></path><path d="M17.6 17.7L19.0 19.1C22.9 15.2 22.9 8.9 19.0 5.0L17.6 6.4C20.7 9.5 20.7 14.6 17.6 17.7Z"></path><path d="M12 5.0L6.0 9.0H3.0C2.4 9.0 2.0 9.4 2.0 10V14C2.0 14.5 2.4 15 3.0 15H6.0L12 19V5.0Z"></path><path d="M12.3 4.4V19.5L5.9 15.3H3.0C2.2 15.3 1.7 14.7 1.7 14V10C1.7 9.2 2.2 8.7 3.0 8.7H5.9L12.3 4.4ZM11.7 5.5L6.0 9.3H3.0C2.6 9.3 2.3 9.6 2.3 10V14C2.3 14.3 2.6 14.7 3.0 14.7H6.0L11.7 18.4V5.5Z"></path></symbol><symbol xmlns="http://www.w3.org/2000/svg" viewBox="0 0 24 24" id="unmute-button--inline"><path d="M18.4 13.1L16.5 15.0L15.4 13.9L17.3 11.9L15.4 10.0L16.5 8.9L18.4 10.8L20.4 8.9L21.5 10.0L19.6 11.9L21.5 13.9L20.4 15.0L18.4 13.1Z"></path><path d="M12.7 20.4V3.5L5.7 8.2H2.9C2.0 8 1 9.0 1.1 10.0V14.0C1.1 14.9 2.0 15.8 2.9 15.8H5.7L12.7 20.4ZM6.6 9.5L11.1 6.4V17.5L6.6 14.4V9.5ZM5 9.8V14.2H2.9C2.8 14.2 2.7 14.1 2.7 14.0V10.0C2.7 9.8 2.8 9.8 2.9 9.8H5Z"></path></symbol><symbol xmlns="http://www.w3.org/2000/svg" viewBox="0 0 84 84" fill="white" id="play-button--inline">
    <path d="M29.4472 24.7236C28.7823 24.3912 28 24.8747 28 25.618V58.382C28 59.1253 28.7823 59.6088 29.4472 59.2764L62.2111 42.8944C62.9482 42.5259 62.9482 41.4741 62.2111 41.1056L29.4472 24.7236Z"></path>
</symbol><symbol xmlns="http://www.w3.org/2000/svg" viewBox="0 0 84 84" fill="white" id="pause-button--inline">
    <path d="M29 28C29 27.4477 29.4477 27 30 27H36C36.5523 27 37 27.4477 37 28V56C37 56.5523 36.5523 57 36 57H30C29.4477 57 29 56.5523 29 56V28Z"></path>
    <path d="M47 28C47 27.4477 47.4477 27 48 27H54C54.5523 27 55 27.4477 55 28V56C55 56.5523 54.5523 57 54 57H48C47.4477 57 47 56.5523 47 56V28Z"></path>
</symbol><symbol xmlns="http://www.w3.org/2000/svg" viewBox="0 0 84 84" fill="white" id="error-button--inline">
    <path d="M42.0002 20C46.4949 20 50.6652 21.3889 54.1054 23.7609L50.1033 27.1179C47.7087 25.7693 44.9443 25 42.0002 25C32.8669 25 25.4628 32.404 25.4628 41.5374C25.4628 43.4552 25.7892 45.2967 26.3896 47.0094L22.5698 50.2135C21.3365 47.514 20.6493 44.5127 20.6493 41.3509C20.6493 29.5591 30.2084 20 42.0002 20ZM34.3049 56.1791C34.2875 56.1699 34.2701 56.1607 34.2527 56.1515L30.4704 59.3242C30.4907 59.3372 30.5109 59.3502 30.5313 59.3631L29.8601 59.9294C29.6234 60.1291 29.6234 60.4939 29.8601 60.6937L41.4352 70.4602C41.98 70.9198 42.8135 70.5326 42.8135 69.8198L42.8135 62.6866C54.2284 62.2591 63.3511 52.8704 63.3511 41.3509C63.3511 38.4344 62.7663 35.6544 61.7076 33.1219L57.7402 36.4498C58.2579 38.0526 58.5376 39.7623 58.5376 41.5374C58.5376 50.3981 51.5691 57.6311 42.8135 58.0551L42.8135 50.8033C42.8135 50.0905 41.98 49.7032 41.4352 50.1629L34.3049 56.1791Z"></path>
    <path d="M43.7854 32.4602C43.2407 32.9198 42.4072 32.5326 42.4072 31.8198L42.4072 12.8033C42.4072 12.0905 43.2407 11.7032 43.7854 12.1629L55.3606 21.9294C55.5973 22.1291 55.5973 22.4939 55.3606 22.6937L43.7854 32.4602Z"></path>
</symbol><symbol xmlns="http://www.w3.org/2000/svg" viewBox="0 0 28 28" id="reload-m--inline">
<path d="M16 2L15 3L18.2 7H14C9.02944 7 5 11.0294 5 16C5 20.9706 9.02944 25 14 25C18.9706 25 23 20.9706 23 16H21C21 19.866 17.866 23 14 23C10.134 23 7 19.866 7 16C7 12.134 10.134 9 14 9H18.2L15 13L16 14L22 8L16 2Z"></path>
</symbol><symbol xmlns="http://www.w3.org/2000/svg" viewBox="0 0 28 28" id="external-link-m--inline">
<path d="M15 6V8H18.58L12.10 14.48L13.51 15.89L20 9.40V13H22V6H15Z"></path>
<path d="M7.17 7.17C8.11 6.22 9.52 6.04 12 6.00V8.00C11.11 8.02 10.43 8.05 9.87 8.12C9.00 8.24 8.73 8.43 8.58 8.58C8.43 8.73 8.24 9.00 8.12 9.87C8.00 10.80 8 12.05 8 14C8 15.94 8.00 17.19 8.12 18.12C8.24 18.99 8.43 19.26 8.58 19.41C8.73 19.56 9.00 19.75 9.87 19.87C10.80 19.99 12.05 20 14 20C15.94 20 17.19 19.99 18.12 19.87C18.99 19.75 19.26 19.56 19.41 19.41C19.56 19.26 19.75 18.99 19.87 18.12C19.94 17.56 19.97 16.88 19.99 16H21.99C21.95 18.47 21.77 19.88 20.82 20.82C19.65 22 17.77 22 14 22C10.22 22 8.34 22 7.17 20.82C6 19.65 6 17.77 6 14C6 10.22 6 8.34 7.17 7.17Z"></path>
</symbol><symbol xmlns="http://www.w3.org/2000/svg" viewBox="0 0 32 32" id="play-m--inline">
<path d="M8.44 7.72C7.78 7.39 7 7.87 7 8.61V23.38C7 24.12 7.78 24.60 8.44 24.27L23.21 16.89C23.94 16.52 23.94 15.47 23.21 15.10L8.44 7.72Z"></path>
</symbol></svg>